<svg width="548" height="389" viewBox="0 0 548 389" fill="none" xmlns="http://www.w3.org/2000/svg">
<path d="M183.109 25.224C183.621 24.264 184.485 23.592 185.701 23.208C186.917 22.824 188.453 22.632 190.309 22.632C192.165 22.632 193.637 22.792 194.725 23.112C195.813 23.432 196.645 23.816 197.221 24.264C197.797 24.712 198.245 25.352 198.565 26.184C198.885 27.272 199.045 28.936 199.045 31.176V84.456C199.045 85.928 198.981 87.048 198.853 87.816C198.789 88.52 198.501 89.352 197.989 90.312C197.093 92.04 194.597 92.904 190.501 92.904C186.021 92.904 183.397 91.72 182.629 89.352C182.245 88.264 182.053 86.6 182.053 84.36V64.872H156.613V84.456C156.613 85.928 156.549 87.048 156.421 87.816C156.357 88.52 156.069 89.352 155.557 90.312C154.661 92.04 152.165 92.904 148.069 92.904C143.589 92.904 140.965 91.72 140.197 89.352C139.813 88.264 139.621 86.6 139.621 84.36V31.08C139.621 29.608 139.653 28.52 139.717 27.816C139.845 27.048 140.165 26.184 140.677 25.224C141.573 23.496 144.069 22.632 148.165 22.632C152.645 22.632 155.301 23.816 156.133 26.184C156.453 27.272 156.613 28.936 156.613 31.176V50.76H182.053V31.08C182.053 29.608 182.085 28.52 182.149 27.816C182.277 27.048 182.597 26.184 183.109 25.224ZM255.514 61.704C255.514 65.608 254.522 68.52 252.538 70.44C250.618 72.296 248.474 73.224 246.106 73.224H223.354C223.354 75.016 224.41 76.52 226.522 77.736C228.634 78.952 230.746 79.56 232.858 79.56C236.57 79.56 239.482 79.176 241.594 78.408L242.65 78.024C244.186 77.32 245.466 76.968 246.49 76.968C248.538 76.968 250.298 78.408 251.77 81.288C252.602 83.016 253.018 84.488 253.018 85.704C253.018 91.4 246.202 94.248 232.57 94.248C227.834 94.248 223.61 93.448 219.898 91.848C216.25 90.184 213.402 88.008 211.354 85.32C207.322 80.136 205.306 74.344 205.306 67.944C205.306 59.88 207.898 53.448 213.082 48.648C218.33 43.784 224.858 41.352 232.666 41.352C241.562 41.352 248.09 44.488 252.25 50.76C254.426 54.088 255.514 57.736 255.514 61.704ZM235.258 64.488C237.69 64.488 238.906 63.464 238.906 61.416C238.906 59.944 238.33 58.76 237.178 57.864C236.09 56.968 234.49 56.52 232.378 56.52C230.33 56.52 228.282 57.384 226.234 59.112C224.186 60.776 223.162 62.568 223.162 64.488H235.258ZM279.442 76.008C281.554 76.008 283.122 76.552 284.146 77.64C285.17 78.728 285.682 80.968 285.682 84.36C285.682 87.752 285.138 90.024 284.05 91.176C282.962 92.264 281.394 92.808 279.346 92.808C272.882 92.808 268.338 91.272 265.714 88.2C263.09 85.064 261.778 79.88 261.778 72.648V26.856C261.778 25.384 261.81 24.296 261.874 23.592C262.002 22.824 262.29 21.96 262.738 21C263.634 19.336 266.13 18.504 270.226 18.504C274.13 18.504 276.562 19.4 277.522 21.192C278.034 22.088 278.322 22.92 278.386 23.688C278.514 24.392 278.578 25.48 278.578 26.952V73.032C278.578 75.016 278.866 76.008 279.442 76.008ZM304.498 73.032C304.498 74.248 304.754 75.048 305.266 75.432C305.778 75.816 307.09 76.008 309.202 76.008C311.314 76.008 313.074 76.552 314.482 77.64C315.89 78.728 316.594 80.968 316.594 84.36C316.594 87.752 315.826 90.024 314.29 91.176C312.818 92.264 310.738 92.808 308.05 92.808C294.482 92.808 287.698 86.088 287.698 72.648L287.602 26.856C287.602 25.384 287.634 24.296 287.698 23.592C287.826 22.824 288.146 21.96 288.658 21C289.618 19.336 292.114 18.504 296.146 18.504C300.05 18.504 302.482 19.4 303.442 21.192C304.146 22.6 304.498 24.52 304.498 26.952V73.032ZM320.431 67.752C320.431 60.072 323.119 53.736 328.495 48.744C333.871 43.752 340.015 41.256 346.927 41.256C353.839 41.256 359.951 43.752 365.263 48.744C370.575 53.672 373.231 59.976 373.231 67.656C373.231 72.968 371.855 77.704 369.103 81.864C366.351 85.96 362.991 89 359.023 90.984C355.119 92.904 351.055 93.864 346.831 93.864C342.607 93.864 338.511 92.84 334.543 90.792C330.575 88.68 327.215 85.608 324.463 81.576C321.775 77.48 320.431 72.872 320.431 67.752ZM340.495 74.664C342.543 76.2 344.623 76.968 346.735 76.968C348.847 76.968 350.959 76.168 353.071 74.568C355.183 72.968 356.239 70.6 356.239 67.464C356.239 64.328 355.247 61.992 353.263 60.456C351.279 58.92 349.135 58.152 346.831 58.152C344.527 58.152 342.383 58.952 340.399 60.552C338.415 62.152 337.423 64.52 337.423 67.656C337.423 70.728 338.447 73.064 340.495 74.664ZM375.302 77.928C375.878 76.904 376.806 76.2 378.086 75.816C379.366 75.368 381.414 75.144 384.23 75.144C387.046 75.144 389.062 75.784 390.278 77.064C391.558 78.28 392.198 80.68 392.198 84.264C392.198 85.608 392.102 86.856 391.91 88.008C391.334 93.448 389.542 98.184 386.534 102.216C383.526 106.248 380.006 108.264 375.974 108.264C375.526 108.264 375.11 107.912 374.726 107.208C374.406 106.568 374.246 105.704 374.246 104.616C374.246 103.592 374.374 102.76 374.63 102.12C374.95 101.48 375.334 101.064 375.782 100.872C376.23 100.744 376.678 100.488 377.126 100.104C377.638 99.784 378.31 98.952 379.142 97.608C379.974 96.264 380.454 94.728 380.582 93C378.534 92.744 376.934 92.072 375.782 90.984C374.694 89.832 374.15 88.008 374.15 85.512C374.214 82.952 374.278 81.32 374.342 80.616C374.47 79.848 374.79 78.952 375.302 77.928ZM422.746 31.08C422.746 29.608 422.778 28.52 422.842 27.816C422.97 27.048 423.29 26.184 423.802 25.224C424.698 23.496 427.194 22.632 431.29 22.632C435.77 22.632 438.426 23.816 439.258 26.184C439.578 27.272 439.738 28.936 439.738 31.176V84.552C439.738 86.088 439.674 87.208 439.546 87.912C439.482 88.616 439.194 89.448 438.682 90.408C437.786 92.136 435.29 93 431.194 93C426.714 93 424.09 91.784 423.322 89.352C422.938 88.328 422.746 86.696 422.746 84.456V31.08ZM462.283 24.648C463.371 25.736 463.915 27.592 463.915 30.216V31.752C463.915 33.352 463.851 34.536 463.723 35.304C463.275 40.936 461.611 45.768 458.731 49.8C455.851 53.832 452.203 55.848 447.787 55.848C447.339 55.848 446.923 55.528 446.539 54.888C446.219 54.184 446.059 53.288 446.059 52.2C446.059 51.112 446.187 50.28 446.443 49.704C446.763 49.064 447.083 48.712 447.403 48.648C447.787 48.52 448.075 48.456 448.267 48.456C448.459 48.392 448.811 48.232 449.323 47.976C449.835 47.656 450.283 47.24 450.667 46.728C451.691 45.384 452.267 43.304 452.395 40.488C450.219 40.168 448.587 39.464 447.499 38.376C446.475 37.288 445.963 34.984 445.963 31.464C445.963 28.904 446.283 27.016 446.923 25.8C447.563 24.52 448.523 23.688 449.803 23.304C451.147 22.856 453.195 22.632 455.947 22.632C458.699 22.632 460.811 23.304 462.283 24.648ZM486.696 49.128C489.704 44.584 493.32 42.312 497.544 42.312C504.072 42.312 508.936 45.096 512.136 50.664C512.84 49.704 513.672 48.712 514.632 47.688C515.656 46.6 517.256 45.448 519.432 44.232C521.608 42.952 523.848 42.312 526.152 42.312C531.272 42.312 535.56 44.296 539.016 48.264C542.472 52.168 544.2 58.664 544.2 67.752V84.552C544.2 86.024 544.136 87.144 544.008 87.912C543.944 88.616 543.656 89.448 543.144 90.408C542.312 92.136 539.848 93 535.752 93C531.72 93 529.256 92.104 528.36 90.312C527.912 89.352 527.624 88.52 527.496 87.816C527.432 87.048 527.4 85.928 527.4 84.456V67.656C527.4 62.088 525.416 59.304 521.448 59.304C519.208 59.304 517.672 60.04 516.84 61.512C516.072 62.984 515.688 65.064 515.688 67.752V84.552C515.688 86.088 515.624 87.208 515.496 87.912C515.432 88.616 515.144 89.448 514.632 90.408C513.736 92.136 511.24 93 507.144 93C503.112 93 500.648 92.104 499.752 90.312C499.304 89.352 499.016 88.52 498.888 87.816C498.824 87.048 498.792 85.928 498.792 84.456V67.656C498.792 62.088 496.808 59.304 492.84 59.304C489 59.304 487.08 62.088 487.08 67.656V84.648C487.08 86.12 487.016 87.24 486.888 88.008C486.824 88.712 486.536 89.544 486.024 90.504C485.064 92.168 482.568 93 478.536 93C474.504 93 472.04 92.136 471.144 90.408C470.696 89.448 470.408 88.616 470.28 87.912C470.216 87.208 470.184 86.088 470.184 84.552V50.76C470.184 49.288 470.216 48.2 470.28 47.496C470.408 46.728 470.728 45.896 471.24 45C472.2 43.272 474.472 42.408 478.056 42.408C481.64 42.408 483.976 42.984 485.064 44.136C486.152 45.288 486.696 46.952 486.696 49.128Z" fill="#303030"/>
<path d="M15.778 204.816C13.5593 202.085 12.45 199.653 12.45 197.52C12.45 195.301 14.2847 192.4 17.954 188.816C20.0873 186.768 22.3487 185.744 24.738 185.744C27.1273 185.744 30.4553 187.877 34.722 192.144C35.9167 193.595 37.6233 195.003 39.842 196.368C42.0607 197.648 44.1087 198.288 45.986 198.288C53.922 198.288 57.89 195.045 57.89 188.56C57.89 186.597 56.7807 184.976 54.562 183.696C52.4287 182.331 49.7407 181.349 46.498 180.752C43.2553 180.155 39.7567 179.216 36.002 177.936C32.2473 176.571 28.7487 174.992 25.506 173.2C22.2633 171.408 19.5327 168.592 17.314 164.752C15.1807 160.827 14.114 156.133 14.114 150.672C14.114 143.163 16.8873 136.635 22.434 131.088C28.066 125.456 35.7033 122.64 45.346 122.64C50.466 122.64 55.1167 123.323 59.298 124.688C63.5647 125.968 66.5087 127.291 68.13 128.656L71.33 131.088C73.9753 133.563 75.298 135.653 75.298 137.36C75.298 139.067 74.274 141.413 72.226 144.4C69.3247 148.667 66.338 150.8 63.266 150.8C61.474 150.8 59.2553 149.947 56.61 148.24C56.354 148.069 55.842 147.643 55.074 146.96C54.3913 146.277 53.7513 145.723 53.154 145.296C51.362 144.187 49.058 143.632 46.242 143.632C43.5113 143.632 41.2073 144.315 39.33 145.68C37.538 146.96 36.642 148.795 36.642 151.184C36.642 153.488 37.7087 155.365 39.842 156.816C42.0607 158.267 44.7913 159.248 48.034 159.76C51.2767 160.272 54.818 161.083 58.658 162.192C62.498 163.216 66.0393 164.496 69.282 166.032C72.5247 167.568 75.2127 170.256 77.346 174.096C79.5647 177.851 80.674 182.501 80.674 188.048C80.674 193.595 79.5647 198.501 77.346 202.768C75.1273 206.949 72.226 210.192 68.642 212.496C61.73 217.019 54.3487 219.28 46.498 219.28C42.4873 219.28 38.69 218.811 35.106 217.872C31.522 216.848 28.6207 215.611 26.402 214.16C21.8793 211.429 18.722 208.784 16.93 206.224L15.778 204.816ZM202.749 150.544C211.282 150.544 218.365 153.829 223.997 160.4C229.714 166.885 232.573 174.821 232.573 184.208V206.736C232.573 208.699 232.488 210.192 232.317 211.216C232.232 212.155 231.89 213.221 231.293 214.416C230.098 216.72 226.77 217.872 221.309 217.872C215.25 217.872 211.752 216.293 210.813 213.136C210.301 211.685 210.045 209.509 210.045 206.608V184.08C210.045 180.581 209.021 177.851 206.973 175.888C205.01 173.925 202.322 172.944 198.909 172.944C195.581 172.944 192.85 173.968 190.717 176.016C188.669 178.064 187.645 180.752 187.645 184.08V206.736C187.645 208.699 187.56 210.192 187.389 211.216C187.304 212.155 186.92 213.221 186.237 214.416C185.128 216.72 181.842 217.872 176.381 217.872C171.005 217.872 167.72 216.72 166.525 214.416C165.928 213.136 165.544 212.027 165.373 211.088C165.288 210.064 165.245 208.571 165.245 206.608V161.296C165.245 159.419 165.288 158.011 165.373 157.072C165.544 156.048 165.97 154.939 166.653 153.744C167.848 151.611 171.133 150.544 176.509 150.544C181.714 150.544 184.914 151.525 186.109 153.488C186.962 154.939 187.389 156.688 187.389 158.736C187.73 158.139 188.498 157.285 189.693 156.176C190.888 155.067 192.04 154.171 193.149 153.488C196.05 151.525 199.25 150.544 202.749 150.544ZM263.99 184.336C263.99 187.92 265.185 190.736 267.574 192.784C269.963 194.747 272.481 195.728 275.126 195.728C277.857 195.728 280.374 194.96 282.678 193.424C285.067 191.803 286.987 190.992 288.438 190.992C290.998 190.992 294.113 193.253 297.782 197.776C299.745 200.251 300.726 202.469 300.726 204.432C300.726 207.675 298.379 210.704 293.686 213.52C288.822 216.933 282.849 218.64 275.766 218.64C267.83 218.64 260.193 215.781 252.854 210.064C249.355 207.333 246.497 203.707 244.278 199.184C242.059 194.576 240.95 189.541 240.95 184.08C240.95 178.533 242.059 173.541 244.278 169.104C246.497 164.581 249.355 160.955 252.854 158.224C259.937 152.592 267.489 149.776 275.51 149.776C278.753 149.776 281.91 150.245 284.982 151.184C288.054 152.037 290.315 152.891 291.766 153.744L293.814 155.024C295.35 156.048 296.545 156.859 297.398 157.456C299.617 159.163 300.726 161.125 300.726 163.344C300.726 165.477 299.83 167.909 298.038 170.64C294.966 175.333 292.022 177.68 289.206 177.68C287.585 177.68 285.281 176.741 282.294 174.864C280.758 173.413 278.539 172.688 275.638 172.688C272.822 172.688 270.177 173.712 267.702 175.76C265.227 177.808 263.99 180.667 263.99 184.336Z" fill="#BB91FF"/>
<path d="M132.771 157.712C133.283 152.933 136.654 150.544 142.883 150.544C146.211 150.544 148.686 150.8 150.307 151.312C151.928 151.824 153.038 152.72 153.635 154C154.318 155.28 154.702 156.432 154.787 157.456C154.958 158.395 155.043 159.845 155.043 161.808V206.608C155.043 208.571 154.958 210.064 154.787 211.088C154.702 212.027 154.36 213.136 153.763 214.416C152.568 216.635 149.624 217.744 144.931 217.744C140.323 217.744 137.208 217.189 135.587 216.08C134.051 214.885 133.155 213.179 132.899 210.96C129.742 215.483 124.451 217.744 117.027 217.744C109.688 217.744 102.862 214.373 96.547 207.632C90.2323 200.891 87.075 193.083 87.075 184.208C87.075 175.248 90.2323 167.44 96.547 160.784C102.947 154.043 109.944 150.672 117.539 150.672C120.44 150.672 123.086 151.184 125.475 152.208C127.864 153.232 129.528 154.213 130.467 155.152C131.406 156.005 132.174 156.859 132.771 157.712ZM109.475 184.336C109.475 187.152 110.584 189.712 112.803 192.016C115.022 194.235 117.71 195.344 120.867 195.344C124.024 195.344 126.627 194.192 128.675 191.888C130.808 189.584 131.875 187.067 131.875 184.336C131.875 181.52 130.851 178.917 128.803 176.528C126.84 174.139 124.152 172.944 120.739 172.944C117.411 172.944 114.68 174.139 112.547 176.528C110.499 178.917 109.475 181.52 109.475 184.336ZM429.521 157.712C430.033 152.933 433.404 150.544 439.633 150.544C442.961 150.544 445.436 150.8 447.057 151.312C448.678 151.824 449.788 152.72 450.385 154C451.068 155.28 451.452 156.432 451.537 157.456C451.708 158.395 451.793 159.845 451.793 161.808V206.608C451.793 208.571 451.708 210.064 451.537 211.088C451.452 212.027 451.11 213.136 450.513 214.416C449.318 216.635 446.374 217.744 441.681 217.744C437.073 217.744 433.958 217.189 432.337 216.08C430.801 214.885 429.905 213.179 429.649 210.96C426.492 215.483 421.201 217.744 413.777 217.744C406.438 217.744 399.612 214.373 393.297 207.632C386.982 200.891 383.825 193.083 383.825 184.208C383.825 175.248 386.982 167.44 393.297 160.784C399.697 154.043 406.694 150.672 414.289 150.672C417.19 150.672 419.836 151.184 422.225 152.208C424.614 153.232 426.278 154.213 427.217 155.152C428.156 156.005 428.924 156.859 429.521 157.712ZM406.225 184.336C406.225 187.152 407.334 189.712 409.553 192.016C411.772 194.235 414.46 195.344 417.617 195.344C420.774 195.344 423.377 194.192 425.425 191.888C427.558 189.584 428.625 187.067 428.625 184.336C428.625 181.52 427.601 178.917 425.553 176.528C423.59 174.139 420.902 172.944 417.489 172.944C414.161 172.944 411.43 174.139 409.297 176.528C407.249 178.917 406.225 181.52 406.225 184.336Z" fill="#497BFF"/>
<path d="M345.621 150.8C354.154 150.8 361.237 154.043 366.869 160.528C372.586 167.013 375.445 174.949 375.445 184.336V206.864C375.445 208.827 375.36 210.32 375.189 211.344C375.104 212.283 374.72 213.392 374.037 214.672C372.928 216.891 369.642 218 364.181 218C358.976 218 355.733 216.891 354.453 214.672C353.77 213.392 353.344 212.24 353.173 211.216C353.088 210.192 353.045 208.656 353.045 206.608V184.208C353.045 180.709 352.064 177.979 350.101 176.016C348.138 174.053 345.621 173.072 342.549 173.072C339.562 173.072 336.917 174.011 334.613 175.888C332.309 177.68 330.986 179.728 330.645 182.032V206.864C330.645 208.827 330.56 210.32 330.389 211.344C330.304 212.283 329.92 213.392 329.237 214.672C328.128 216.891 324.842 218 319.381 218C314.005 218 310.72 216.848 309.525 214.544C308.928 213.264 308.544 212.155 308.373 211.216C308.288 210.277 308.245 208.784 308.245 206.736V130.192C308.245 128.229 308.288 126.779 308.373 125.84C308.544 124.816 308.928 123.707 309.525 122.512C310.72 120.208 314.048 119.056 319.509 119.056C324.885 119.056 328.128 120.208 329.237 122.512C329.92 123.792 330.304 124.944 330.389 125.968C330.56 126.907 330.645 128.357 330.645 130.32V158.608C334.912 153.403 339.904 150.8 345.621 150.8Z" fill="#FFBC7F"/>
<path d="M507.819 151.312C509.44 151.824 510.763 152.72 511.787 154C512.896 155.195 513.451 157.157 513.451 159.888C513.451 162.619 512.64 165.605 511.019 168.848C509.398 172.091 507.051 173.712 503.979 173.712C502.443 173.712 500.95 173.371 499.499 172.688C498.134 172.005 496.299 171.664 493.995 171.664C491.691 171.664 489.515 172.475 487.467 174.096C485.504 175.717 484.523 177.68 484.523 179.984V206.864C484.523 208.827 484.438 210.32 484.267 211.344C484.182 212.283 483.798 213.392 483.115 214.672C481.835 216.891 478.507 218 473.131 218C469.035 218 466.091 217.275 464.299 215.824C462.934 214.629 462.166 212.795 461.995 210.32C461.995 209.467 461.995 208.229 461.995 206.608V161.68C461.995 159.717 462.038 158.267 462.123 157.328C462.294 156.304 462.678 155.195 463.275 154C464.47 151.696 467.798 150.544 473.259 150.544C478.379 150.544 481.579 151.525 482.859 153.488C483.798 154.853 484.267 156.261 484.267 157.712C484.694 157.115 485.291 156.389 486.059 155.536C486.912 154.683 488.662 153.531 491.307 152.08C493.952 150.629 496.256 149.904 498.219 149.904C500.267 149.904 501.974 150.032 503.339 150.288C504.704 150.459 506.198 150.8 507.819 151.312ZM520.495 161.808C520.495 159.845 520.538 158.395 520.623 157.456C520.794 156.432 521.178 155.28 521.775 154C522.97 151.781 526.298 150.672 531.759 150.672C535.855 150.672 538.756 151.397 540.463 152.848C541.914 154.043 542.682 155.877 542.767 158.352C542.852 159.205 542.895 160.443 542.895 162.064V206.864C542.895 208.827 542.81 210.32 542.639 211.344C542.554 212.283 542.17 213.392 541.487 214.672C540.378 216.891 537.092 218 531.631 218C526.255 218 522.97 216.848 521.775 214.544C521.178 213.264 520.794 212.155 520.623 211.216C520.538 210.277 520.495 208.784 520.495 206.736V161.808ZM541.487 138.128C540.89 139.323 539.78 140.176 538.159 140.688C536.538 141.2 534.362 141.456 531.631 141.456C528.986 141.456 526.852 141.2 525.231 140.688C523.61 140.176 522.458 139.28 521.775 138C521.178 136.72 520.794 135.611 520.623 134.672C520.538 133.648 520.495 132.155 520.495 130.192C520.495 128.229 520.538 126.779 520.623 125.84C520.794 124.816 521.178 123.707 521.775 122.512C522.97 120.208 526.298 119.056 531.759 119.056C537.135 119.056 540.378 120.208 541.487 122.512C542.17 123.792 542.554 124.944 542.639 125.968C542.81 126.907 542.895 128.357 542.895 130.32C542.895 132.283 542.81 133.776 542.639 134.8C542.554 135.739 542.17 136.848 541.487 138.128Z" fill="#D8FE85"/>
<path d="M192.957 252.76C193.64 254.04 194.024 255.192 194.109 256.216C194.28 257.24 194.365 258.733 194.365 260.696V331.736C194.365 337.624 192.744 341.08 189.501 342.104C187.88 342.616 185.832 342.872 183.357 342.872C180.882 342.872 178.92 342.659 177.469 342.232C176.018 341.805 174.909 341.293 174.141 340.696C173.373 340.099 172.776 339.245 172.349 338.136C171.922 336.685 171.709 334.467 171.709 331.48V288.6C169.576 291.245 166.461 295.469 162.365 301.272C158.269 306.989 155.666 310.573 154.557 312.024C153.448 313.475 152.68 314.499 152.253 315.096C151.826 315.608 150.76 316.376 149.053 317.4C147.432 318.339 145.64 318.808 143.677 318.808C141.8 318.808 140.05 318.381 138.429 317.528C136.893 316.589 135.784 315.693 135.101 314.84L134.077 313.432C132.37 311.299 129 306.776 123.965 299.864C118.93 292.867 116.2 289.112 115.773 288.6V331.736C115.773 333.699 115.688 335.192 115.517 336.216C115.432 337.155 115.048 338.221 114.365 339.416C113.085 341.72 109.757 342.872 104.381 342.872C99.1757 342.872 95.933 341.72 94.653 339.416C93.9703 338.221 93.5437 337.112 93.373 336.088C93.2877 335.064 93.245 333.528 93.245 331.48V260.44C93.245 258.477 93.2877 257.027 93.373 256.088C93.5437 255.064 93.9703 253.912 94.653 252.632C95.933 250.413 99.261 249.304 104.637 249.304C106.941 249.304 108.904 249.603 110.525 250.2C112.232 250.712 113.341 251.267 113.853 251.864L114.621 252.632L143.677 290.776C158.184 271.576 167.869 258.904 172.733 252.76C174.184 250.456 177.597 249.304 182.973 249.304C188.434 249.304 191.762 250.456 192.957 252.76Z" fill="#D8FE85"/>
<path d="M248.396 282.712C248.908 277.933 252.279 275.544 258.508 275.544C261.836 275.544 264.311 275.8 265.932 276.312C267.553 276.824 268.663 277.72 269.26 279C269.943 280.28 270.327 281.432 270.412 282.456C270.583 283.395 270.668 284.845 270.668 286.808V331.608C270.668 333.571 270.583 335.064 270.412 336.088C270.327 337.027 269.985 338.136 269.388 339.416C268.193 341.635 265.249 342.744 260.556 342.744C255.948 342.744 252.833 342.189 251.212 341.08C249.676 339.885 248.78 338.179 248.524 335.96C245.367 340.483 240.076 342.744 232.652 342.744C225.313 342.744 218.487 339.373 212.172 332.632C205.857 325.891 202.7 318.083 202.7 309.208C202.7 300.248 205.857 292.44 212.172 285.784C218.572 279.043 225.569 275.672 233.164 275.672C236.065 275.672 238.711 276.184 241.1 277.208C243.489 278.232 245.153 279.213 246.092 280.152C247.031 281.005 247.799 281.859 248.396 282.712ZM225.1 309.336C225.1 312.152 226.209 314.712 228.428 317.016C230.647 319.235 233.335 320.344 236.492 320.344C239.649 320.344 242.252 319.192 244.3 316.888C246.433 314.584 247.5 312.067 247.5 309.336C247.5 306.52 246.476 303.917 244.428 301.528C242.465 299.139 239.777 297.944 236.364 297.944C233.036 297.944 230.305 299.139 228.172 301.528C226.124 303.917 225.1 306.52 225.1 309.336ZM478.771 282.712C479.283 277.933 482.654 275.544 488.883 275.544C492.211 275.544 494.686 275.8 496.307 276.312C497.928 276.824 499.038 277.72 499.635 279C500.318 280.28 500.702 281.432 500.787 282.456C500.958 283.395 501.043 284.845 501.043 286.808V331.608C501.043 333.571 500.958 335.064 500.787 336.088C500.702 337.027 500.36 338.136 499.763 339.416C498.568 341.635 495.624 342.744 490.931 342.744C486.323 342.744 483.208 342.189 481.587 341.08C480.051 339.885 479.155 338.179 478.899 335.96C475.742 340.483 470.451 342.744 463.027 342.744C455.688 342.744 448.862 339.373 442.547 332.632C436.232 325.891 433.075 318.083 433.075 309.208C433.075 300.248 436.232 292.44 442.547 285.784C448.947 279.043 455.944 275.672 463.539 275.672C466.44 275.672 469.086 276.184 471.475 277.208C473.864 278.232 475.528 279.213 476.467 280.152C477.406 281.005 478.174 281.859 478.771 282.712ZM455.475 309.336C455.475 312.152 456.584 314.712 458.803 317.016C461.022 319.235 463.71 320.344 466.867 320.344C470.024 320.344 472.627 319.192 474.675 316.888C476.808 314.584 477.875 312.067 477.875 309.336C477.875 306.52 476.851 303.917 474.803 301.528C472.84 299.139 470.152 297.944 466.739 297.944C463.411 297.944 460.68 299.139 458.547 301.528C456.499 303.917 455.475 306.52 455.475 309.336Z" fill="#497BFF"/>
<path d="M318.374 275.544C326.907 275.544 333.99 278.829 339.622 285.4C345.339 291.885 348.198 299.821 348.198 309.208V331.736C348.198 333.699 348.113 335.192 347.942 336.216C347.857 337.155 347.515 338.221 346.918 339.416C345.723 341.72 342.395 342.872 336.934 342.872C330.875 342.872 327.377 341.293 326.438 338.136C325.926 336.685 325.67 334.509 325.67 331.608V309.08C325.67 305.581 324.646 302.851 322.598 300.888C320.635 298.925 317.947 297.944 314.534 297.944C311.206 297.944 308.475 298.968 306.342 301.016C304.294 303.064 303.27 305.752 303.27 309.08V331.736C303.27 333.699 303.185 335.192 303.014 336.216C302.929 337.155 302.545 338.221 301.862 339.416C300.753 341.72 297.467 342.872 292.006 342.872C286.63 342.872 283.345 341.72 282.15 339.416C281.553 338.136 281.169 337.027 280.998 336.088C280.913 335.064 280.87 333.571 280.87 331.608V286.296C280.87 284.419 280.913 283.011 280.998 282.072C281.169 281.048 281.595 279.939 282.278 278.744C283.473 276.611 286.758 275.544 292.134 275.544C297.339 275.544 300.539 276.525 301.734 278.488C302.587 279.939 303.014 281.688 303.014 283.736C303.355 283.139 304.123 282.285 305.318 281.176C306.513 280.067 307.665 279.171 308.774 278.488C311.675 276.525 314.875 275.544 318.374 275.544Z" fill="#BB91FF"/>
<path d="M403.679 247.512C404.362 246.232 405.514 245.336 407.135 244.824C408.756 244.312 410.89 244.056 413.535 244.056C416.266 244.056 418.442 244.312 420.063 244.824C421.684 245.336 422.794 246.232 423.391 247.512C424.074 248.792 424.458 249.944 424.543 250.968C424.714 251.907 424.799 253.357 424.799 255.32V331.736C424.799 333.699 424.714 335.192 424.543 336.216C424.458 337.155 424.074 338.221 423.391 339.416C422.111 341.72 418.484 342.872 412.511 342.872C406.623 342.872 403.338 340.781 402.655 336.6C399.071 340.696 394.079 342.744 387.679 342.744C379.999 342.744 373.002 339.416 366.687 332.76C360.372 326.019 357.215 318.211 357.215 309.336C357.215 300.376 360.372 292.525 366.687 285.784C373.087 279.043 380.084 275.672 387.679 275.672C393.994 275.672 398.9 277.805 402.399 282.072V255.192C402.399 253.229 402.442 251.779 402.527 250.84C402.698 249.816 403.082 248.707 403.679 247.512ZM382.943 317.016C385.162 319.32 387.85 320.472 391.007 320.472C394.164 320.472 396.767 319.32 398.815 317.016C400.948 314.712 402.015 312.195 402.015 309.464C402.015 306.648 400.991 304.045 398.943 301.656C396.98 299.267 394.292 298.072 390.879 298.072C387.466 298.072 384.735 299.267 382.687 301.656C380.639 303.96 379.615 306.52 379.615 309.336C379.615 312.152 380.724 314.712 382.943 317.016ZM511.245 255.064C511.245 253.101 511.288 251.651 511.373 250.712C511.544 249.688 511.928 248.536 512.525 247.256C513.72 244.952 517.048 243.8 522.509 243.8C527.714 243.8 530.957 244.952 532.237 247.256C532.92 248.536 533.304 249.688 533.389 250.712C533.56 251.736 533.645 253.229 533.645 255.192V314.456C533.645 317.528 533.901 319.491 534.413 320.344C534.925 321.112 536.034 321.496 537.741 321.496C539.533 321.496 540.728 321.581 541.325 321.752C541.922 321.837 542.648 322.179 543.501 322.776C545.208 323.885 546.061 326.915 546.061 331.864C546.061 337.24 545.208 340.525 543.501 341.72C541.282 343.256 535.992 343.512 527.629 342.488C521.058 341.635 516.792 339.459 514.829 335.96C512.44 331.779 511.245 325.123 511.245 315.992V255.064Z" fill="#FFBC7F"/>
</svg>
